<svg width="24" height="24" viewBox="0 0 24 24" fill="none" xmlns="http://www.w3.org/2000/svg">
<path d="M7.55913 1H16.3974C19.7644 1 22.5 3.86 22.5 7.38V16.62C22.5 18.3121 21.857 19.9349 20.7126 21.1313C19.5681 22.3278 18.0159 23 16.3974 23H7.55913C4.19217 23 1.45652 20.14 1.45652 16.62V7.38C1.45652 5.68792 2.09947 4.06514 3.24393 2.86866C4.3884 1.67218 5.94062 1 7.55913 1ZM7.3487 3.2C6.3441 3.2 5.38065 3.61721 4.6703 4.35986C3.95994 5.1025 3.56087 6.10974 3.56087 7.16V16.84C3.56087 19.029 5.25487 20.8 7.3487 20.8H16.6078C17.6124 20.8 18.5759 20.3828 19.2862 19.6401C19.9966 18.8975 20.3957 17.8903 20.3957 16.84V7.16C20.3957 4.971 18.7017 3.2 16.6078 3.2H7.3487ZM17.5022 4.85C17.851 4.85 18.1855 4.99487 18.4322 5.25273C18.6788 5.51059 18.8174 5.86033 18.8174 6.225C18.8174 6.58967 18.6788 6.93941 18.4322 7.19727C18.1855 7.45513 17.851 7.6 17.5022 7.6C17.1534 7.6 16.8188 7.45513 16.5722 7.19727C16.3255 6.93941 16.187 6.58967 16.187 6.225C16.187 5.86033 16.3255 5.51059 16.5722 5.25273C16.8188 4.99487 17.1534 4.85 17.5022 4.85ZM11.9783 6.5C13.3735 6.5 14.7117 7.07946 15.6983 8.11091C16.6849 9.14236 17.2391 10.5413 17.2391 12C17.2391 13.4587 16.6849 14.8576 15.6983 15.8891C14.7117 16.9205 13.3735 17.5 11.9783 17.5C10.583 17.5 9.24487 16.9205 8.25827 15.8891C7.27166 14.8576 6.71739 13.4587 6.71739 12C6.71739 10.5413 7.27166 9.14236 8.25827 8.11091C9.24487 7.07946 10.583 6.5 11.9783 6.5ZM11.9783 8.7C11.1411 8.7 10.3382 9.04768 9.74626 9.66655C9.1543 10.2854 8.82174 11.1248 8.82174 12C8.82174 12.8752 9.1543 13.7146 9.74626 14.3335C10.3382 14.9523 11.1411 15.3 11.9783 15.3C12.8154 15.3 13.6183 14.9523 14.2103 14.3335C14.8022 13.7146 15.1348 12.8752 15.1348 12C15.1348 11.1248 14.8022 10.2854 14.2103 9.66655C13.6183 9.04768 12.8154 8.7 11.9783 8.7Z" fill="white"/>
</svg>
