<svg width="24" height="24" viewBox="0 0 24 24" fill="none" xmlns="http://www.w3.org/2000/svg">
<path d="M20.0791 7.8997C19.9465 7.773 19.789 7.67248 19.6157 7.60389C19.4423 7.5353 19.2565 7.5 19.0688 7.5C18.8812 7.5 18.6953 7.5353 18.522 7.60389C18.3486 7.67248 18.1912 7.773 18.0586 7.8997L12.4988 13.2028L6.93891 7.8997C6.67098 7.64415 6.30759 7.50058 5.92868 7.50058C5.54977 7.50058 5.18638 7.64415 4.91845 7.8997C4.65052 8.15526 4.5 8.50186 4.5 8.86327C4.5 9.22468 4.65052 9.57129 4.91845 9.82684L11.4957 16.1003C11.6283 16.227 11.7857 16.3275 11.9591 16.3961C12.1324 16.4647 12.3182 16.5 12.5059 16.5C12.6936 16.5 12.8794 16.4647 13.0528 16.3961C13.2261 16.3275 13.3836 16.227 13.5161 16.1003L20.0934 9.82684C20.6379 9.30747 20.6379 8.43274 20.0791 7.8997Z" fill="white"/>
</svg>
